# xmcd
#
# Track frame offsets:
#	150
#	25015
#	49638
#	75325
#	105645
#	150180
#	167275
#	197675
#	227215
#	254600
#	304035
#
# Disc length: 4503 seconds
#
# Revision: 60
# Processed by: cddbd v1.5.2PL0 Copyright (c) Steve Scherf et al.
# Submitted via: Jack! The Knife 17 Overdose
#
DISCID=7211950b
DTITLE=Dream Theater - Awake
DYEAR=1994
DGENRE=Heavy Metal
TTITLE0=6:00
TTITLE1=Caught In A Web
TTITLE2=Innocence Faded
TTITLE3=Erotomania
TTITLE4=Voices
TTITLE5=The Silent Man
TTITLE6=The Mirror
TTITLE7=Lie
TTITLE8=Lifting Shadows Off A Dream
TTITLE9=Scarred
TTITLE10=Space-Dye Vest
EXTD=John Purdell and Duane Baron
EXTT0=LaBrie, Petrucci, Moore, Myung, Portnoy
EXTT1=LaBrie, Petrucci, Moore, Myung, Portnoy
EXTT2=LaBrie, Petrucci, Moore, Myung, Portnoy
EXTT3=LaBrie, Petrucci, Moore, Myung, Portnoy
EXTT4=LaBrie, Petrucci, Moore, Myung, Portnoy
EXTT5=LaBrie, Petrucci, Moore, Myung, Portnoy
EXTT6=LaBrie, Petrucci, Moore, Myung, Portnoy
EXTT7=LaBrie, Petrucci, Moore, Myung, Portnoy
EXTT8=LaBrie, Petrucci, Moore, Myung, Portnoy
EXTT9=LaBrie, Petrucci, Moore, Myung, Portnoy
EXTT10=Kevin Moore
PLAYORDER=
